<svg width="49" height="49" viewBox="0 0 49 49" fill="none" xmlns="http://www.w3.org/2000/svg">
<path d="M24.5 49C26.0965 49 27.4047 47.825 27.6263 46.162C29.8212 31.3511 31.8389 29.2892 46.0735 27.6707C47.714 27.4711 48.9779 26.0965 48.9779 24.5001C48.9779 22.8814 47.7363 21.5512 46.0955 21.3073C31.9498 19.334 30.1983 17.6045 27.6263 2.81596C27.3381 1.17521 26.0742 0 24.5 0C22.8816 0 21.5954 1.17521 21.3295 2.83801C19.1789 17.6268 17.1612 19.6888 2.94888 21.3073C1.26381 21.5291 0.0222168 22.8594 0.0222168 24.5001C0.0222168 26.0965 1.21948 27.4268 2.90456 27.6707C17.0723 29.6883 18.8018 31.3955 21.3295 46.1843C21.662 47.8471 22.948 49 24.5 49Z" fill="white"/>
</svg>
